<svg width="32" height="32" viewBox="0 0 32 32" fill="none" xmlns="http://www.w3.org/2000/svg">
<path d="M10.9428 16L15.1381 11.8047C15.3876 11.5464 15.3876 11.1368 15.1381 10.8784C14.8823 10.6136 14.4603 10.6063 14.1955 10.8621L9.5288 15.5287C9.52872 15.5287 9.52864 15.5288 9.52864 15.5289C9.26838 15.7892 9.26846 16.2112 9.5288 16.4714L14.1955 21.138C14.3203 21.2633 14.49 21.3336 14.6668 21.3333C14.8436 21.3333 15.0131 21.2631 15.138 21.1381C15.3984 20.8778 15.3984 20.4557 15.1382 20.1953L10.9428 16ZM23.1382 20.1953L18.9428 16L23.1381 11.8047C23.3877 11.5463 23.3877 11.1367 23.1381 10.8784C22.8823 10.6135 22.4603 10.6062 22.1955 10.8621L17.5288 15.5287C17.5287 15.5287 17.5286 15.5288 17.5286 15.5289C17.2684 15.7892 17.2685 16.2112 17.5288 16.4714L22.1955 21.138C22.3203 21.2633 22.49 21.3336 22.6668 21.3333C22.8436 21.3333 23.0131 21.2631 23.138 21.1381C23.3984 20.8778 23.3984 20.4557 23.1382 20.1953Z" fill="white"/>
</svg>
