<svg width="21" height="20" viewBox="0 0 21 20" fill="none" xmlns="http://www.w3.org/2000/svg">
<path d="M15.4333 9.68333C15.3937 9.58103 15.3342 9.48758 15.2583 9.40833L11.0917 5.24166C11.014 5.16396 10.9217 5.10233 10.8202 5.06028C10.7187 5.01823 10.6099 4.99658 10.5 4.99658C10.2781 4.99658 10.0653 5.08474 9.90833 5.24166C9.83063 5.31936 9.769 5.4116 9.72695 5.51312C9.6849 5.61464 9.66326 5.72344 9.66326 5.83333C9.66326 6.05524 9.75141 6.26807 9.90833 6.42499L12.6583 9.16666H6.33333C6.11232 9.16666 5.90036 9.25446 5.74408 9.41074C5.5878 9.56702 5.5 9.77898 5.5 9.99999C5.5 10.221 5.5878 10.433 5.74408 10.5892C5.90036 10.7455 6.11232 10.8333 6.33333 10.8333H12.6583L9.90833 13.575C9.83023 13.6525 9.76823 13.7446 9.72592 13.8462C9.68362 13.9477 9.66183 14.0566 9.66183 14.1667C9.66183 14.2767 9.68362 14.3856 9.72592 14.4871C9.76823 14.5887 9.83023 14.6809 9.90833 14.7583C9.9858 14.8364 10.078 14.8984 10.1795 14.9407C10.2811 14.983 10.39 15.0048 10.5 15.0048C10.61 15.0048 10.7189 14.983 10.8205 14.9407C10.922 14.8984 11.0142 14.8364 11.0917 14.7583L15.2583 10.5917C15.3342 10.5124 15.3937 10.419 15.4333 10.3167C15.5167 10.1138 15.5167 9.88621 15.4333 9.68333Z" fill="#2A9DC4"/>
</svg>
