<svg width="16" height="17" viewBox="0 0 16 17" fill="none" xmlns="http://www.w3.org/2000/svg">
<path d="M11.8065 8.02667L8.47313 4.69334C8.40973 4.63264 8.33497 4.58507 8.25313 4.55334C8.09082 4.48666 7.90877 4.48666 7.74646 4.55334C7.66463 4.58507 7.58987 4.63264 7.52646 4.69334L4.19313 8.02667C4.13097 8.08883 4.08167 8.16262 4.04803 8.24384C4.01438 8.32505 3.99707 8.4121 3.99707 8.5C3.99707 8.67754 4.0676 8.8478 4.19313 8.97334C4.31867 9.09887 4.48893 9.1694 4.66646 9.1694C4.844 9.1694 5.01426 9.09887 5.1398 8.97334L7.33313 6.77334V11.8333C7.33313 12.0101 7.40337 12.1797 7.52839 12.3047C7.65342 12.4298 7.82299 12.5 7.9998 12.5C8.17661 12.5 8.34618 12.4298 8.4712 12.3047C8.59623 12.1797 8.66646 12.0101 8.66646 11.8333V6.77334L10.8598 8.97334C10.9218 9.03582 10.9955 9.08542 11.0767 9.11926C11.158 9.15311 11.2451 9.17053 11.3331 9.17053C11.4211 9.17053 11.5083 9.15311 11.5895 9.11926C11.6708 9.08542 11.7445 9.03582 11.8065 8.97334C11.8689 8.91136 11.9185 8.83763 11.9524 8.75639C11.9862 8.67515 12.0037 8.58801 12.0037 8.5C12.0037 8.41199 11.9862 8.32486 11.9524 8.24362C11.9185 8.16238 11.8689 8.08864 11.8065 8.02667Z" fill="black"/>
</svg>
