<svg width="24" height="24" viewBox="0 0 24 24" fill="none" xmlns="http://www.w3.org/2000/svg">
<path d="M16.6665 11.3333H12.6665V7.33332C12.6665 7.15651 12.5963 6.98694 12.4712 6.86192C12.3462 6.73689 12.1766 6.66666 11.9998 6.66666C11.823 6.66666 11.6535 6.73689 11.5284 6.86192C11.4034 6.98694 11.3332 7.15651 11.3332 7.33332V11.3333H7.33317C7.15636 11.3333 6.98679 11.4036 6.86177 11.5286C6.73674 11.6536 6.6665 11.8232 6.6665 12C6.6665 12.1768 6.73674 12.3464 6.86177 12.4714C6.98679 12.5964 7.15636 12.6667 7.33317 12.6667H11.3332V16.6667C11.3332 16.8435 11.4034 17.013 11.5284 17.1381C11.6535 17.2631 11.823 17.3333 11.9998 17.3333C12.1766 17.3333 12.3462 17.2631 12.4712 17.1381C12.5963 17.013 12.6665 16.8435 12.6665 16.6667V12.6667H16.6665C16.8433 12.6667 17.0129 12.5964 17.1379 12.4714C17.2629 12.3464 17.3332 12.1768 17.3332 12C17.3332 11.8232 17.2629 11.6536 17.1379 11.5286C17.0129 11.4036 16.8433 11.3333 16.6665 11.3333Z" fill="#0076FF"/>
</svg>
