<svg width="217" height="32" viewBox="0 0 217 32" fill="none" xmlns="http://www.w3.org/2000/svg">
<g clip-path="url(#clip0_1_62801)">
<path d="M30.8361 8.43323C26.0594 5.83003 21.3103 3.18053 16.5267 0.589333C16.1716 0.397266 15.5303 0.385261 15.1786 0.575614C10.3364 3.19253 5.51316 5.85061 0.708863 8.53956C0.383061 8.72133 0.0676012 9.22037 0.0486391 9.58907C-0.0289329 10.9901 0.0503629 12.4015 0.00209589 13.8043C-0.01859 14.3839 0.248603 14.624 0.707139 14.8589C4.52713 16.8225 8.33678 18.8083 12.1533 20.7787C13.3359 21.3892 14.5288 21.9791 15.8423 22.6428C15.8423 21.7836 15.7958 21.084 15.8561 20.3911C15.9147 19.7189 15.6441 19.4085 15.0442 19.1067C11.2087 17.1723 7.40592 15.1727 3.57558 13.2263C3.03602 12.952 2.69988 12.6896 2.77228 12.0328C2.85158 11.3091 2.59128 10.5871 3.5411 10.083C7.45591 8.00623 11.3104 5.81803 15.2097 3.71386C15.5372 3.53723 16.125 3.53037 16.4491 3.70528C20.3208 5.7923 24.1529 7.94792 28.0263 10.0315C28.7262 10.4088 28.9744 10.8341 28.933 11.5989C28.9123 11.9985 29.0433 12.5798 29.3243 12.7856C29.9845 13.2709 30.7741 13.5813 31.6756 14.0461C31.6756 12.4992 31.6308 11.1599 31.6929 9.82572C31.7273 9.1089 31.4395 8.76249 30.8378 8.43323H30.8361Z" fill="white"/>
<path d="M30.8701 17.0452C28.3533 15.7745 25.8589 14.4557 23.3542 13.1593C20.8891 11.8834 18.4189 10.6161 15.8073 9.2699C15.8073 10.0004 15.8642 10.5955 15.7935 11.1751C15.6883 12.0292 16.021 12.4767 16.7968 12.8694C20.5685 14.7815 24.3023 16.7708 28.0602 18.7104C28.6084 18.9933 29.0083 19.2557 28.9204 19.9759C28.8325 20.7082 29.0514 21.4062 28.1033 21.9052C24.2695 23.9202 20.4823 26.0261 16.714 28.1594C16.0176 28.5538 15.5349 28.4818 14.8919 28.1217C11.2012 26.0535 7.50364 23.9939 3.77329 21.9978C3.01136 21.5897 2.67349 21.1558 2.75278 20.2949C2.78726 19.9279 2.6528 19.3672 2.39078 19.1837C1.71677 18.7121 0.928978 18.4 0.0187995 17.9404C0.0187995 19.5438 -0.0260199 20.9483 0.0481045 22.3493C0.0670666 22.718 0.368736 23.2222 0.687643 23.4023C5.51952 26.1118 10.3721 28.787 15.2384 31.4331C15.5453 31.5995 16.1021 31.6063 16.4072 31.44C21.277 28.7956 26.1313 26.1255 30.9614 23.4126C31.3045 23.2205 31.6079 22.6666 31.6337 22.2619C31.7182 20.962 31.6234 19.6501 31.6803 18.3468C31.7113 17.6677 31.4458 17.3384 30.8649 17.0435L30.8701 17.0452Z" fill="white"/>
<path d="M63.1299 10.0244H46.0416C45.3331 10.0364 44.7918 10.5612 44.7539 11.2969V15.7385C44.7539 16.4536 45.2762 16.98 46.0502 17.0195H62.4645V18.8904H44.7539V21.4525H63.7694C64.4865 21.4405 65.0364 20.8934 65.0485 20.1714V15.747C65.0485 15.3577 64.8951 15.0268 64.6054 14.7884C64.3417 14.5723 64.0504 14.4574 63.7608 14.4574H47.3379V12.5882H62.842L65.0967 12.6036V10.0244H63.1299Z" fill="white"/>
<path d="M93.0865 10.0244H75.3845C75.3845 10.0244 75.3811 10.0244 75.3776 10.0244H74.0503V12.6036H82.9435V21.4525H85.5189V20.2589C85.5206 20.2297 85.5275 20.2006 85.5275 20.1714V12.6036H94.3949V10.0244H93.0882H93.0865Z" fill="white"/>
<path d="M123.87 10.4052C123.4 10.1479 122.912 10.0176 122.422 10.0176H106.475C105.684 10.0176 104.981 10.2954 104.386 10.839C103.776 11.3895 103.452 12.1081 103.422 12.9895V18.4892C103.433 19.1442 103.579 19.6776 103.871 20.1234C104.417 20.9569 105.389 21.4542 106.475 21.4542H122.422C122.95 21.4542 123.451 21.3256 123.91 21.0752C124.889 20.5419 125.474 19.573 125.474 18.4823V12.9895C125.474 12.4339 125.32 11.9194 125.012 11.4547C124.71 11.014 124.338 10.6727 123.87 10.4069V10.4052ZM122.898 18.4806C122.898 18.8527 122.534 18.8819 122.422 18.8819H106.475C106.053 18.8819 106.008 18.7532 106.008 18.4806V12.9638C106.008 12.7357 106.041 12.5865 106.475 12.5865H122.422C122.865 12.5865 122.898 12.7374 122.898 12.9878V18.4806Z" fill="white"/>
<path d="M154.374 10.3623C154.106 10.1325 153.819 10.0176 153.513 10.0176H135.803C135.068 10.0176 134.515 10.5715 134.515 11.3072V21.4542H137.091V17.0212H151.465C151.869 17.3213 152.131 17.726 152.205 18.153V21.4542H154.801V18.3931C154.801 17.4311 154.467 16.541 153.808 15.7402C154.079 15.4058 154.299 15.0354 154.465 14.6375C154.687 14.1059 154.799 13.5846 154.799 13.0873V11.3158C154.799 10.9454 154.655 10.6178 154.372 10.364L154.374 10.3623ZM152.226 13.0855C152.226 13.3685 152.155 13.6446 152.012 13.9224C151.888 14.1522 151.724 14.322 151.498 14.4489H137.092V12.5865H152.227V13.0855H152.226Z" fill="white"/>
<path d="M165.13 10.0176C164.413 10.0296 163.863 10.5732 163.85 11.29V20.1714C163.85 20.5367 163.993 20.8591 164.26 21.0992C164.515 21.3307 164.817 21.4525 165.129 21.4525H184.172V18.8818H166.425V17.0538H179.807V14.4489H166.425V12.5865H180.516V12.6019H184.172V10.0159H165.129L165.13 10.0176Z" fill="white"/>
<path d="M211.829 10.0245L211.544 10.1839C211.544 10.1839 211.536 10.1874 211.531 10.1908L211.418 10.2543L203.327 14.9033L197.633 11.6347L194.82 10.0193H194.478C194.468 10.0193 194.458 10.0193 194.447 10.0193L193.139 10.0227H189.717L193.684 12.3138C193.729 12.3481 193.775 12.3807 193.825 12.4116L202.029 17.1327V21.4508H204.621V17.1275L216.997 10.0227H211.825L211.829 10.0245Z" fill="white"/>
</g>
<defs>
<clipPath id="clip0_1_62801">
<rect width="217" height="31.1235" fill="white" transform="translate(0 0.438232)"/>
</clipPath>
</defs>
</svg>
