<svg width="32" height="32" viewBox="0 0 32 32" fill="none" xmlns="http://www.w3.org/2000/svg">
<path d="M26.5335 16.88C26.3198 16.6367 26.2019 16.3239 26.2019 16C26.2019 15.6761 26.3198 15.3633 26.5335 15.12L28.2402 13.2C28.4282 12.9902 28.545 12.7263 28.5738 12.446C28.6025 12.1657 28.5417 11.8836 28.4002 11.64L25.7335 7.02667C25.5934 6.78336 25.38 6.5905 25.1239 6.47558C24.8677 6.36066 24.5818 6.32955 24.3069 6.38667L21.8002 6.89334C21.4812 6.95924 21.1492 6.90612 20.8667 6.744C20.5842 6.58188 20.3709 6.32198 20.2669 6.01334L19.4535 3.57334C19.3641 3.30851 19.1937 3.07849 18.9664 2.91579C18.7391 2.75309 18.4664 2.66595 18.1869 2.66667H12.8535C12.5628 2.65149 12.275 2.7319 12.0343 2.89562C11.7935 3.05934 11.613 3.29736 11.5202 3.57334L10.7735 6.01334C10.6695 6.32198 10.4561 6.58188 10.1737 6.744C9.89119 6.90612 9.55914 6.95924 9.24019 6.89334L6.66685 6.38667C6.40625 6.34984 6.14059 6.39097 5.90332 6.50486C5.66605 6.61874 5.46779 6.80031 5.33352 7.02667L2.66685 11.64C2.52173 11.8809 2.45648 12.1614 2.48043 12.4416C2.50438 12.7218 2.6163 12.9873 2.80019 13.2L4.49352 15.12C4.70728 15.3633 4.82517 15.6761 4.82517 16C4.82517 16.3239 4.70728 16.6367 4.49352 16.88L2.80019 18.8C2.6163 19.0127 2.50438 19.2782 2.48043 19.5584C2.45648 19.8386 2.52173 20.1191 2.66685 20.36L5.33352 24.9733C5.47365 25.2166 5.68701 25.4095 5.94319 25.5244C6.19937 25.6393 6.48529 25.6705 6.76019 25.6133L9.26685 25.1067C9.58581 25.0408 9.91786 25.0939 10.2003 25.256C10.4828 25.4181 10.6962 25.678 10.8002 25.9867L11.6135 28.4267C11.7063 28.7026 11.8868 28.9407 12.1276 29.1044C12.3684 29.2681 12.6561 29.3485 12.9469 29.3333H18.2802C18.5597 29.3341 18.8324 29.2469 19.0597 29.0842C19.287 28.9215 19.4574 28.6915 19.5469 28.4267L20.3602 25.9867C20.4642 25.678 20.6776 25.4181 20.96 25.256C21.2425 25.0939 21.5746 25.0408 21.8935 25.1067L24.4002 25.6133C24.6751 25.6705 24.961 25.6393 25.2172 25.5244C25.4734 25.4095 25.6867 25.2166 25.8269 24.9733L28.4935 20.36C28.6351 20.1164 28.6959 19.8343 28.6671 19.554C28.6384 19.2737 28.5216 19.0098 28.3335 18.8L26.5335 16.88ZM24.5469 18.6667L25.6135 19.8667L23.9069 22.8267L22.3335 22.5067C21.3732 22.3104 20.3743 22.4735 19.5263 22.9651C18.6783 23.4566 18.0404 24.2425 17.7335 25.1733L17.2269 26.6667H13.8135L13.3335 25.1467C13.0267 24.2158 12.3887 23.43 11.5407 22.9384C10.6928 22.4468 9.69381 22.2837 8.73352 22.48L7.16019 22.8L5.42685 19.8533L6.49352 18.6533C7.14946 17.92 7.5121 16.9706 7.5121 15.9867C7.5121 15.0028 7.14946 14.0534 6.49352 13.32L5.42685 12.12L7.13352 9.18667L8.70685 9.50667C9.66715 9.70297 10.6661 9.53984 11.5141 9.04827C12.362 8.55669 13 7.77088 13.3069 6.84L13.8135 5.33334H17.2269L17.7335 6.85334C18.0404 7.78421 18.6783 8.57002 19.5263 9.0616C20.3743 9.55318 21.3732 9.7163 22.3335 9.52L23.9069 9.2L25.6135 12.16L24.5469 13.36C23.8983 14.0917 23.5401 15.0356 23.5401 16.0133C23.5401 16.9911 23.8983 17.935 24.5469 18.6667ZM15.5202 10.6667C14.4654 10.6667 13.4342 10.9795 12.5571 11.5655C11.6801 12.1515 10.9965 12.9845 10.5928 13.959C10.1892 14.9336 10.0835 16.0059 10.2893 17.0405C10.4951 18.075 11.0031 19.0254 11.749 19.7712C12.4948 20.5171 13.4451 21.0251 14.4797 21.2309C15.5143 21.4366 16.5866 21.331 17.5612 20.9274C18.5357 20.5237 19.3687 19.8401 19.9547 18.963C20.5407 18.086 20.8535 17.0548 20.8535 16C20.8535 14.5855 20.2916 13.229 19.2914 12.2288C18.2912 11.2286 16.9347 10.6667 15.5202 10.6667ZM15.5202 18.6667C14.9928 18.6667 14.4772 18.5103 14.0387 18.2173C13.6001 17.9242 13.2583 17.5078 13.0565 17.0205C12.8547 16.5332 12.8019 15.997 12.9048 15.4798C13.0077 14.9625 13.2616 14.4873 13.6346 14.1144C14.0075 13.7414 14.4827 13.4875 14.9999 13.3846C15.5172 13.2817 16.0534 13.3345 16.5407 13.5363C17.0279 13.7382 17.4444 14.08 17.7374 14.5185C18.0305 14.957 18.1869 15.4726 18.1869 16C18.1869 16.7072 17.9059 17.3855 17.4058 17.8856C16.9057 18.3857 16.2274 18.6667 15.5202 18.6667Z" fill="black"/>
</svg>
